<?xml version="1.0" encoding="iso-8859-1"?>
<!-- Generator: Adobe Illustrator 19.0.0, SVG Export Plug-In . SVG Version: 6.00 Build 0)  -->
<svg version="1.1" id="Capa_1" xmlns="http://www.w3.org/2000/svg" xmlns:xlink="http://www.w3.org/1999/xlink" x="0px" y="0px"
	 viewBox="0 0 512 512" style="enable-background:new 0 0 512 512;" xml:space="preserve">
<path style="fill:#CFD8DC;" d="M277.333,224c-5.891,0-10.667-4.776-10.667-10.667c-3.224-37.967,24.94-71.358,62.907-74.583
	c0.364-0.031,0.729-0.059,1.093-0.084c5.891,0,10.667,4.776,10.667,10.667c0,5.891-4.776,10.667-10.667,10.667
	c-26.134,2.475-45.312,25.667-42.837,51.801c0.048,0.512,0.105,1.023,0.17,1.533C288,219.224,283.224,224,277.333,224z"/>
<path style="fill:#607D8B;" d="M315.093,215.019c-11.347-7.229-24.334-11.478-37.76-12.352c-13.426,0.874-26.413,5.123-37.76,12.352
	c-3.059,1.962-4.908,5.347-4.907,8.981v32c0,5.891,4.776,10.667,10.667,10.667h64c5.891,0,10.667-4.776,10.667-10.667v-32
	C320.001,220.366,318.152,216.981,315.093,215.019z"/>
<path style="fill:#FFC107;" d="M416,117.333c-24.128,0-36.779-2.795-43.648-9.685s-9.685-19.52-9.685-43.648
	c0-5.891-4.776-10.667-10.667-10.667c-5.891,0-10.667,4.776-10.667,10.667c0,24.128-2.795,36.779-9.685,43.648
	s-19.52,9.685-43.648,9.685c-5.891,0-10.667,4.776-10.667,10.667c0,5.891,4.776,10.667,10.667,10.667
	c24.128,0,36.779,2.795,43.648,9.685s9.685,19.52,9.685,43.648c0,5.891,4.776,10.667,10.667,10.667
	c5.891,0,10.667-4.776,10.667-10.667c0-24.128,2.795-36.779,9.685-43.648s19.52-9.685,43.648-9.685
	c5.891,0,10.667-4.776,10.667-10.667C426.667,122.109,421.891,117.333,416,117.333z"/>
<path style="fill:#F44336;" d="M138.667,224c-5.891,0-10.667,4.776-10.667,10.667v96H21.333v-96c0-5.891-4.776-10.667-10.667-10.667
	S0,228.776,0,234.667V448c0,5.891,4.776,10.667,10.667,10.667S21.333,453.891,21.333,448v-96H128v96
	c0,5.891,4.776,10.667,10.667,10.667s10.667-4.776,10.667-10.667V234.667C149.333,228.776,144.558,224,138.667,224z"/>
<circle style="fill:#455A64;" cx="277.333" cy="352" r="106.667"/>
<path style="fill:#90A4AE;" d="M224,362.667c-5.891,0-10.667-4.776-10.667-10.667c0-35.346,28.654-64,64-64
	c5.891,0,10.667,4.776,10.667,10.667c0,5.891-4.776,10.667-10.667,10.667c-23.564,0-42.667,19.103-42.667,42.667
	C234.667,357.891,229.891,362.667,224,362.667z"/>
<path style="fill:#F44336;" d="M501.333,224h-128c-5.891,0-10.667,4.776-10.667,10.667s4.776,10.667,10.667,10.667h53.333V448
	c0,5.891,4.776,10.667,10.667,10.667S448,453.891,448,448V245.333h53.333c5.891,0,10.667-4.776,10.667-10.667
	S507.224,224,501.333,224z"/>
<g>
</g>
<g>
</g>
<g>
</g>
<g>
</g>
<g>
</g>
<g>
</g>
<g>
</g>
<g>
</g>
<g>
</g>
<g>
</g>
<g>
</g>
<g>
</g>
<g>
</g>
<g>
</g>
<g>
</g>
</svg>
