<svg id="Capa_1" enable-background="new 0 0 495.282 495.282" height="512" viewBox="0 0 495.282 495.282" width="512" xmlns="http://www.w3.org/2000/svg"><g><g><g><path d="m332.797 362.817c.294-37.478 28.392-68.473 65.122-74.233l-.138-30.882-49.07-27.132-10.93-70.095h-38.74l14.573 145.735c0 16.097-13.049 29.147-29.147 29.147h-44.813c-16.097 0-29.147-13.05-29.147-29.147v-43.72l18.091-9.046c6.776-3.388 11.056-10.313 11.056-17.889v-16.786h-107.721c-48.194 0-88.185 35.093-95.831 81.117 16.341-16.849 40.329-29.59 73.485-29.59 48.142 0 87.191 31.038 73.116 93.108z" fill="#71e4bf"/></g><g><path d="m182.576 363.984h-174.882c0-31.229 28.48-93.687 101.893-93.687 48.292 0 87.441 31.229 72.989 93.687z" fill="#b6efbb"/></g><g><path d="m109.587 270.297c-8.379 0-16.166.822-23.399 2.31 1.596-.055 3.209-.089 4.849-.089 26.977 0 49.618 9.018 62.119 24.741 6.888 8.664 13.737 23.323 12.237 46.725h-154.653c-2.064 7.342-3.046 14.208-3.046 20h174.882c14.452-62.458-24.697-93.687-72.989-93.687z" fill="#71e4bf"/></g><g><path d="m487.782 363.408h-155c0-41.86 34.698-75.795 77.5-75.795s77.5 33.934 77.5 75.795z" fill="#b6efbb"/></g><g><path d="m410.282 287.613c-7.099 0-13.966.952-20.498 2.7 33.901 2.192 62.471 23.609 74.18 53.095h-128.435c-1.779 6.374-2.747 13.074-2.747 20h155c0-41.861-34.698-75.795-77.5-75.795z" fill="#71e4bf"/></g><g><path d="m277.782 160.475v-13.077c0-14.346 10.157-26.684 24.236-29.441l52.056-10.192v52.711h-76.292z" fill="#b6efbb"/></g><g><path d="m197.782 184.087c-7.178-6.636-16.594-10.322-26.369-10.322h-13.505c-21.452 0-38.842 17.39-38.842 38.842v6.095h30 54.717 36.018v-15.03c0-7.752-6.285-14.037-14.037-14.037h-13.809c-5.255 0-10.315-1.981-14.173-5.548z" fill="#e6cc9f"/></g><g><path d="m354.074 363.407c.455 30.663 25.437 55.383 56.208 55.383s55.753-24.72 56.208-55.383z" fill="#a9baca"/></g><g><path d="m436.463 363.408c-.448 14.078-11.994 25.355-26.181 25.355s-25.733-11.277-26.18-25.355z" fill="#fff"/></g><g><path d="m36.877 363.984c.757 30.395 25.616 54.807 56.193 54.807s55.436-24.412 56.193-54.807z" fill="#6987a0"/></g><g><path d="m119.233 363.984c-.739 13.809-12.169 24.779-26.162 24.779s-25.423-10.97-26.162-24.779z" fill="#fff"/></g><g><path d="m7.5 122.702h105.088v96h-105.088z" fill="#b6e6fa"/></g><g><path d="m92.588 122.702v76h-85.088v20h105.088v-96z" fill="#8bb3d8"/></g></g><g><g><path d="m82.782 303.202h45.125v15h-45.125z"/></g><g><path d="m410.282 280.113c-1.645 0-3.277.057-4.899.148l-.12-26.993-49.706-27.483-2.461-15.783-14.821 2.312 13.686 90.399c-14.777 13.632-24.32 32.615-26.274 52.633l-133.917.524c4.985-32.568-4.182-59.346-26.307-76.091l-9.052 11.961c18.36 13.896 25.241 36.201 20.061 64.745h-160.764c4.061-31 32.397-78.687 93.878-78.687 12.999 0 25.252 2.479 35.434 7.167l6.274-13.625c-12.136-5.588-26.559-8.542-41.708-8.542-25.188 0-44.6 6.896-59.287 16.047 5.39-11.839 13.346-22.485 23.388-31.077 16.203-13.863 36.888-21.498 58.245-21.498h100.222v9.287c0 4.765-2.648 9.049-6.91 11.18l-22.237 11.119v48.355c0 20.207 16.44 36.647 36.647 36.647h44.813c20.207 0 36.647-16.44 36.647-36.647v-.374l-13.784-137.862h24.031l4.602 29.513 14.821-2.311-4.242-27.203h15.032v-69.32l-50.869 9.96-44.188-25.456v-14.166h-15v43.126h15v-11.65l23.844 13.736c-12.066 6.352-20.079 19.012-20.079 33.194v20.577h21.973l13.858 138.582c-.186 11.777-9.824 21.3-21.644 21.3h-44.813c-11.936 0-21.647-9.711-21.647-21.647v-39.085l13.946-6.973c9.376-4.688 15.201-14.113 15.201-24.597l.146-31.884c0-11.875-9.662-21.537-21.537-21.537h-13.809c-3.377 0-6.602-1.262-9.082-3.555-8.589-7.942-19.762-12.315-31.46-12.315h-13.505c-15.601 0-29.416 7.758-37.819 19.609v-70.672h-120.09v37.167h15v-22.167h90.088v81h-90.088v-13.438h-15v28.438h78.089c-4.965 2.979-9.708 6.364-14.153 10.167-18.103 15.489-30.38 36.71-34.793 59.96-1.342 1.444-2.61 2.88-3.79 4.293-18.57 22.241-25.16 48.033-25.16 63.361v7.5h29.801c1.941 13.897 8.373 26.715 18.554 36.665 11.969 11.699 27.781 18.142 44.521 18.142s32.552-6.443 44.522-18.142c10.18-9.95 16.612-22.768 18.553-36.665l71.751-.756-42.471 14.897 4.965 14.154 81.875-28.718 74.861-.153c1.825 14.013 8.209 26.957 18.417 37.028 11.997 11.836 27.885 18.354 44.74 18.354s32.743-6.518 44.74-18.354c10.208-10.071 16.592-23.016 18.417-37.029h21.843c0-48.761-33.598-90.792-85-90.792zm-119.527-127.138h-5.473v-5.577c0-10.732 7.645-20.019 18.177-22.081l43.115-8.442v36.1h-2.371zm-132.848 28.29h13.505c7.912 0 15.468 2.958 21.278 8.329 5.259 4.863 12.101 7.541 19.264 7.541h13.809c3.604 0 6.537 2.933 6.537 6.537v7.53h-105.704c.737-16.633 14.5-29.937 31.311-29.937zm-48.414 190.219c-3.176 5.838-9.351 9.779-16.423 9.779s-13.247-3.941-16.423-9.779zm17.614 25.938c-9.15 8.943-21.238 13.869-34.037 13.869s-24.887-4.925-34.037-13.869c-7.271-7.107-12.052-16.123-13.862-25.938h15.391c3.92 14.349 17.048 24.779 32.508 24.779s28.588-10.43 32.508-24.779h15.391c-1.809 9.815-6.591 18.831-13.862 25.938zm263.195-135.286.09 20.278c-8.703 2.031-17.151 5.447-24.801 10.059l-7.205-47.984zm19.98 149.155c-23.876 0-43.996-17.522-47.993-40.383h15.327c3.688 14.681 16.87 25.355 32.666 25.355s28.979-10.673 32.667-25.355h15.327c-3.997 22.86-24.117 40.383-47.994 40.383zm-16.736-40.383h33.473c-3.052 6.166-9.374 10.355-16.737 10.355s-13.684-4.19-16.736-10.355zm-52.823-15c8.81-79.202 130.253-78.995 139.14 0z"/></g><g><path d="m0 167.702h15v15h-15z"/></g><g><path d="m44.529 144.869h31.03v15h-31.03z"/></g><g><path d="m381.282 325.51h15.5v15h-15.5z"/></g><g><g><path d="" fill="none" stroke="#000" stroke-miterlimit="10" stroke-width="15"/></g></g><g><g><path d="m396.782 310.51h15.5v15h-15.5z" fill="#fff"/></g></g></g></g></svg>