<?xml version="1.0" encoding="iso-8859-1"?>
<!-- Generator: Adobe Illustrator 19.0.0, SVG Export Plug-In . SVG Version: 6.00 Build 0)  -->
<svg version="1.1" id="Capa_1" xmlns="http://www.w3.org/2000/svg" xmlns:xlink="http://www.w3.org/1999/xlink" x="0px" y="0px"
	 viewBox="0 0 512 512" style="enable-background:new 0 0 512 512;" xml:space="preserve">
<linearGradient id="SVGID_1_" gradientUnits="userSpaceOnUse" x1="73.5291" y1="262.804" x2="157.9611" y2="262.804" gradientTransform="matrix(1.0039 0 0 -1.0039 0.1922 516.5609)">
	<stop  offset="0" style="stop-color:#FFE7A5"/>
	<stop  offset="0.966" style="stop-color:#FFBF5C"/>
</linearGradient>
<path style="fill:url(#SVGID_1_);" d="M116.391,295.108c-23.369,0-42.382-19.012-42.382-42.382s19.011-42.382,42.382-42.382
	s42.382,19.012,42.382,42.382S139.761,295.108,116.391,295.108z M116.391,229.043c-13.059,0-23.684,10.624-23.684,23.684
	s10.625,23.684,23.684,23.684s23.684-10.625,23.684-23.684C140.076,239.667,129.45,229.043,116.391,229.043z"/>
<linearGradient id="SVGID_2_" gradientUnits="userSpaceOnUse" x1="351.6571" y1="262.804" x2="436.0891" y2="262.804" gradientTransform="matrix(1.0039 0 0 -1.0039 0.1922 516.5609)">
	<stop  offset="0" style="stop-color:#FFE7A5"/>
	<stop  offset="0.966" style="stop-color:#FFBF5C"/>
</linearGradient>
<path style="fill:url(#SVGID_2_);" d="M395.61,295.108c-23.369,0-42.382-19.012-42.382-42.382s19.012-42.382,42.382-42.382
	c23.369,0,42.382,19.012,42.382,42.382S418.979,295.108,395.61,295.108z M395.61,229.043c-13.059,0-23.684,10.624-23.684,23.684
	s10.624,23.684,23.684,23.684s23.684-10.625,23.684-23.684C419.293,239.667,408.669,229.043,395.61,229.043z"/>
<linearGradient id="SVGID_3_" gradientUnits="userSpaceOnUse" x1="433.2471" y1="246.481" x2="379.8771" y2="299.851" gradientTransform="matrix(1.0039 0 0 -1.0039 0.1922 516.5609)">
	<stop  offset="0" style="stop-color:#FF5D00;stop-opacity:0"/>
	<stop  offset="1" style="stop-color:#D54003"/>
</linearGradient>
<path style="fill:url(#SVGID_3_);" d="M437.829,256.303c-0.262,3.066-0.86,6.034-1.733,8.888h-20.381
	c2.256-3.627,3.578-7.891,3.578-12.465c0-10.222-6.506-18.947-15.594-22.263c-2.531-0.923-5.247-1.421-8.09-1.421
	c-4.076,0-7.903,1.035-11.256,2.854l-10.67-15.419c5.435-3.303,11.668-5.41,18.349-5.97L437.829,256.303z"/>
<linearGradient id="SVGID_4_" gradientUnits="userSpaceOnUse" x1="158.2391" y1="253.953" x2="122.0391" y2="290.153" gradientTransform="matrix(1.0039 0 0 -1.0039 0.1922 516.5609)">
	<stop  offset="0" style="stop-color:#FF5D00;stop-opacity:0"/>
	<stop  offset="1" style="stop-color:#D54003"/>
</linearGradient>
<path style="fill:url(#SVGID_4_);" d="M140.076,252.726c0,4.577-1.326,8.84-3.582,12.465H156.9
	c1.216-3.942,1.873-8.128,1.873-12.465c0-15.357-8.202-28.82-20.455-36.261l-10.67,15.431
	C135.039,235.898,140.076,243.739,140.076,252.726z"/>
<linearGradient id="SVGID_5_" gradientUnits="userSpaceOnUse" x1="249.0234" y1="93.5654" x2="175.3034" y2="-425.4346" gradientTransform="matrix(1.0039 0 0 -1.0039 0.1922 516.5609)">
	<stop  offset="0" style="stop-color:#FFE7A5"/>
	<stop  offset="0.966" style="stop-color:#FFBF5C"/>
</linearGradient>
<path style="fill:url(#SVGID_5_);" d="M467.708,512H44.294c-24.206,0-43.828-19.623-43.828-43.827V295.308
	c0-24.206,19.623-43.828,43.828-43.828h423.414c24.206,0,43.827,19.623,43.827,43.828v172.865
	C511.535,492.377,491.913,512,467.708,512z"/>
<linearGradient id="SVGID_6_" gradientUnits="userSpaceOnUse" x1="244.7827" y1="157.1801" x2="171.0626" y2="325.4501" gradientTransform="matrix(1.0039 0 0 -1.0039 0.1922 516.5609)">
	<stop  offset="0" style="stop-color:#FFE7A5"/>
	<stop  offset="0.966" style="stop-color:#FFBF5C"/>
</linearGradient>
<path style="fill:url(#SVGID_6_);" d="M49.203,280.773h413.596c11.385,0,20.616,9.23,20.616,20.616v160.703
	c0,11.385-9.23,20.617-20.616,20.617H49.203c-11.385,0-20.616-9.23-20.616-20.617V301.388
	C28.587,290.003,37.817,280.773,49.203,280.773z"/>
<linearGradient id="SVGID_7_" gradientUnits="userSpaceOnUse" x1="107.6737" y1="388.6499" x2="401.9438" y2="388.6499" gradientTransform="matrix(1.0039 0 0 -1.0039 0.1922 516.5609)">
	<stop  offset="0" style="stop-color:#FF7BAC"/>
	<stop  offset="1" style="stop-color:#E24786"/>
</linearGradient>
<path style="fill:url(#SVGID_7_);" d="M394.372,239.284c-2.966,0-5.882-1.408-7.697-4.031L256.001,46.355L125.326,235.253
	c-2.937,4.246-8.762,5.308-13.007,2.369c-4.246-2.937-5.308-8.761-2.37-13.007L256.001,13.49l146.051,211.127
	c2.937,4.246,1.876,10.069-2.37,13.007C398.058,238.745,396.206,239.284,394.372,239.284z"/>
<linearGradient id="SVGID_8_" gradientUnits="userSpaceOnUse" x1="295.0761" y1="427.1709" x2="277.4261" y2="452.1209" gradientTransform="matrix(1.0039 0 0 -1.0039 0.1922 516.5609)">
	<stop  offset="0" style="stop-color:#FF7BAC;stop-opacity:0"/>
	<stop  offset="1" style="stop-color:#E24786"/>
</linearGradient>
<polygon style="fill:url(#SVGID_8_);" points="309.999,91.528 296.55,104.977 256.001,46.354 255.851,46.566 244.483,30.137 
	256.001,13.484 "/>
<linearGradient id="SVGID_9_" gradientUnits="userSpaceOnUse" x1="254.7797" y1="513.354" x2="254.8496" y2="439.323" gradientTransform="matrix(1.0039 0 0 -1.0039 0.1922 516.5609)">
	<stop  offset="0" style="stop-color:#E2EDF2"/>
	<stop  offset="1" style="stop-color:#BDCCD4"/>
</linearGradient>
<circle style="fill:url(#SVGID_9_);" cx="256.001" cy="32.447" r="32.447"/>
<linearGradient id="SVGID_10_" gradientUnits="userSpaceOnUse" x1="254.8193" y1="473.313" x2="254.7793" y2="508.248" gradientTransform="matrix(1.0039 0 0 -1.0039 0.1922 516.5609)">
	<stop  offset="0" style="stop-color:#E2EDF2"/>
	<stop  offset="1" style="stop-color:#BDCCD4"/>
</linearGradient>
<path style="fill:url(#SVGID_10_);" d="M272.899,27.064l-11.534,0.011l-0.011-11.534c-0.003-2.966-2.409-5.367-5.374-5.364l0,0
	c-2.965,0.003-5.367,2.408-5.364,5.374l0.011,11.534l-11.534,0.011c-2.966,0.003-5.367,2.409-5.364,5.374
	c0.003,2.966,2.408,5.367,5.374,5.364l11.534-0.011l0.011,11.534c0.003,2.966,2.408,5.367,5.374,5.364l0,0
	c2.965-0.003,5.367-2.409,5.364-5.374l-0.011-11.534l11.534-0.011c2.966-0.003,5.367-2.409,5.364-5.374
	C278.27,29.462,275.864,27.061,272.899,27.064z"/>
<g>
	
		<linearGradient id="SVGID_11_" gradientUnits="userSpaceOnUse" x1="127.7896" y1="132.273" x2="127.7896" y2="-81.117" gradientTransform="matrix(1.0039 0 0 -1.0039 0.1922 516.5609)">
		<stop  offset="0" style="stop-color:#FFFFFF"/>
		<stop  offset="1" style="stop-color:#E2EDF2"/>
	</linearGradient>
	<path style="fill:url(#SVGID_11_);" d="M85.573,444.175V321.123c0-4.343,3.287-6.515,9.867-6.515c3.474,0,6.265,0.776,8.378,2.327
		c2.109,1.553,4.282,4.5,6.515,8.843l41.327,80.607v-85.448c0-2.109,0.96-3.691,2.885-4.748c1.923-1.053,4.25-1.582,6.981-1.582
		c2.729,0,5.055,0.529,6.98,1.582c1.924,1.056,2.886,2.638,2.886,4.748v123.238c0,1.987-0.963,3.569-2.886,4.748
		c-1.926,1.181-4.252,1.769-6.98,1.769c-5.212,0-9.122-2.42-11.729-7.26l-44.492-84.703v85.448c0,1.987-0.963,3.569-2.885,4.748
		c-1.926,1.181-4.253,1.769-6.981,1.769c-2.606,0-4.904-0.587-6.888-1.769C86.566,447.745,85.573,446.162,85.573,444.175z"/>
	
		<linearGradient id="SVGID_12_" gradientUnits="userSpaceOnUse" x1="235.6176" y1="132.273" x2="235.6176" y2="-81.117" gradientTransform="matrix(1.0039 0 0 -1.0039 0.1922 516.5609)">
		<stop  offset="0" style="stop-color:#FFFFFF"/>
		<stop  offset="1" style="stop-color:#E2EDF2"/>
	</linearGradient>
	<path style="fill:url(#SVGID_12_);" d="M195.964,444.175V321.123c0-1.984,0.866-3.566,2.607-4.748
		c1.736-1.178,3.785-1.769,6.143-1.769h66.273c2.109,0,3.724,0.869,4.84,2.606c1.117,1.739,1.676,3.723,1.676,5.957
		c0,2.485-0.59,4.593-1.769,6.33c-1.181,1.739-2.763,2.606-4.748,2.606h-55.289v42.631h28.669c1.985,0,3.567,0.776,4.748,2.327
		c1.179,1.553,1.769,3.444,1.769,5.678c0,1.987-0.559,3.756-1.676,5.306c-1.116,1.553-2.732,2.327-4.84,2.327h-28.669v42.817h55.289
		c1.985,0,3.567,0.869,4.748,2.606c1.179,1.739,1.769,3.848,1.769,6.33c0,2.234-0.558,4.22-1.676,5.957
		c-1.116,1.74-2.732,2.606-4.84,2.606h-66.273c-2.359,0-4.407-0.587-6.143-1.769C196.831,447.745,195.964,446.162,195.964,444.175z"
		/>
	
		<linearGradient id="SVGID_13_" gradientUnits="userSpaceOnUse" x1="358.0371" y1="132.273" x2="358.0371" y2="-81.117" gradientTransform="matrix(1.0039 0 0 -1.0039 0.1922 516.5609)">
		<stop  offset="0" style="stop-color:#FFFFFF"/>
		<stop  offset="1" style="stop-color:#E2EDF2"/>
	</linearGradient>
	<path style="fill:url(#SVGID_13_);" d="M283.645,322.613c0-2.234,1.304-4.124,3.91-5.678c2.606-1.55,5.399-2.327,8.378-2.327
		c3.845,0,6.143,1.367,6.887,4.096l30.53,106.111l16.757-66.645c0.849-3.846,4.061-5.772,9.64-5.772c5.335,0,8.488,1.964,9.46,5.884
		l16.937,66.645l30.408-106.335c0.739-2.656,3.023-3.986,6.851-3.986c2.961,0,5.735,0.765,8.331,2.295
		c2.591,1.53,3.889,3.394,3.889,5.597c0,0.857-0.064,1.469-0.187,1.835l-36.826,120.64c-0.735,2.152-2.297,3.828-4.685,5.03
		c-2.388,1.201-4.992,1.803-7.807,1.803c-2.819,0-5.421-0.587-7.81-1.76c-2.388-1.173-3.828-2.81-4.317-4.91l-14.314-56.325
		l-14.136,56.224c-0.486,2.132-1.911,3.793-4.277,4.986c-2.367,1.19-5.024,1.786-7.967,1.786c-2.945,0-5.596-0.59-7.953-1.769
		c-2.359-1.178-3.848-2.822-4.467-4.933L283.83,324.472C283.707,324.102,283.645,323.483,283.645,322.613z"/>
</g>
<g>
</g>
<g>
</g>
<g>
</g>
<g>
</g>
<g>
</g>
<g>
</g>
<g>
</g>
<g>
</g>
<g>
</g>
<g>
</g>
<g>
</g>
<g>
</g>
<g>
</g>
<g>
</g>
<g>
</g>
</svg>
