<svg height="512" viewBox="0 0 512 512" width="512" xmlns="http://www.w3.org/2000/svg"><g id="Flat"><path d="m424 328-80 80h-96l-40 40-56-56 29.25-29.25a64.00441 64.00441 0 0 1 45.26-18.75h13.49l8-8a45.2604 45.2604 0 0 1 64 0l-24 24h40l32-32a45.2604 45.2604 0 0 1 64 0z" fill="#f4ceaf"/><path d="m310.63 360-24 24h-22.63a8 8 0 1 1 0-16h16l8-8z" fill="#f2c194"/><path d="m192 496 32-32-88-88-120 120z" fill="#396795"/><circle cx="172" cy="468" fill="#eebe33" r="12"/><rect fill="#eebe33" height="256" rx="16" width="368" x="96" y="24"/><path d="m112 24h240a0 0 0 0 1 0 0v256a0 0 0 0 1 0 0h-240a16 16 0 0 1 -16-16v-224a16 16 0 0 1 16-16z" fill="#eedc9a"/><path d="m256 88-16-16-16 16-16-16-16 16v-64h64z" fill="#ad7d4d"/><path d="m224 176h96v72h-96z" fill="#8acce7"/><g fill="#379ec3"><path d="m240 192h32v16h-32z"/><path d="m288 192h16v16h-16z"/><path d="m240 216h16v16h-16z"/><path d="m272 216h32v16h-32z"/></g><path d="m72 192a32 32 0 0 0 32-32 32 32 0 0 0 32 32 32 32 0 0 0 -32 32 32 32 0 0 0 -32-32z" fill="#e88604"/><path d="m320 104a32 32 0 0 0 32-32 32 32 0 0 0 32 32 32 32 0 0 0 -32 32 32 32 0 0 0 -32-32z" fill="#e88604"/><path d="m424 176a32 32 0 0 0 32-32 32 32 0 0 0 32 32 32 32 0 0 0 -32 32 32 32 0 0 0 -32-32z" fill="#e88604"/></g></svg>